<?xml version="1.0" encoding="UTF-8" standalone="no"?>
<!-- Generator: IcoMoon.io -->
<svg id="svg2" xmlns:rdf="http://www.w3.org/1999/02/22-rdf-syntax-ns#" xmlns="http://www.w3.org/2000/svg" height="512" width="512" version="1.1" xmlns:cc="http://creativecommons.org/ns#" xmlns:dc="http://purl.org/dc/elements/1.1/" viewBox="0 0 512 512">
 <metadata id="metadata10">
  <rdf:RDF>
   <cc:Work rdf:about="">
    <dc:format>image/svg+xml</dc:format>
    <dc:type rdf:resource="http://purl.org/dc/dcmitype/StillImage"/>
    <dc:title/>
   </cc:Work>
  </rdf:RDF>
 </metadata>
 <circle id="path3339" fill-rule="evenodd" cx="256" cy="256" r="256" fill="#337ab7"/>
 <g id="g4220" fill="#fff" transform="matrix(.57267 0 0 .57267 109.44 37.355)">
  <path id="path4212" fill="#fff" d="m311.41 351.37c-11.055-1.759-11.307-32.157-11.307-32.157s32.484-32.158 39.564-75.401c19.045 0 30.809-45.973 11.761-62.148 0.8-17.02 24.48-133.66-95.43-133.66s-96.225 116.64-95.432 133.66c-19.047 16.175-7.285 62.148 11.761 62.148 7.079 43.243 39.564 75.401 39.564 75.401s-0.252 30.398-11.307 32.157c-35.61 5.66-168.59 64.31-168.59 128.63h224 224c0-64.32-132.98-122.97-168.59-128.63z"/>
 </g>
 <g id="flowRoot4216" fill="#fff" transform="translate(0,66)">
  <path id="path4225" d="m112.57 366.42v-78.096h15.898v64.829h39.531v13.267h-55.43z"/>
  <path id="path4227" d="m179.33 287.68h29.058q9.8291 0 14.985 1.5039 6.9287 2.041 11.87 7.251 4.9414 5.21 7.5195 12.783 2.5781 7.5195 2.5781 18.584 0 9.7217-2.417 16.758-2.9541 8.5938-8.4326 13.911-4.1357 4.0283-11.172 6.2842-5.2637 1.665-14.072 1.665h-29.917v-78.74zm15.898 13.32v52.153h11.87q6.6602 0 9.6143-0.75196 3.8672-0.96679 6.3916-3.2764 2.5781-2.3096 4.1895-7.5732 1.6113-5.3174 1.6113-14.448 0-9.1309-1.6113-14.019-1.6113-4.8877-4.5117-7.627t-7.3584-3.7061q-3.3301-0.75195-13.052-0.75195h-7.1436z"/>
  <path id="path4229" d="m329.88 366.42h-17.295l-6.875-17.886h-31.475l-6.499 17.886h-16.865l30.669-78.74h16.812l31.528 78.74zm-29.272-31.152-10.85-29.219-10.635 29.219h21.484z"/>
  <path id="path4231" d="m338.37 366.42v-78.74h25.513q14.502 0 18.906 1.1816 6.7676 1.7725 11.333 7.7344 4.5654 5.9082 4.5654 15.308 0 7.251-2.6318 12.192-2.6318 4.9414-6.7139 7.7881-4.0283 2.793-8.2178 3.706-5.6934 1.1279-16.489 1.1279h-10.366v29.702h-15.898zm15.898-65.42v22.344h8.7012q9.3994 0 12.568-1.2354 3.169-1.2354 4.9414-3.8672 1.8262-2.6318 1.8262-6.123 0-4.2969-2.5244-7.0898-2.5244-2.793-6.3916-3.4912-2.8467-0.53711-11.44-0.53711h-7.6807z"/>
 </g>
</svg>
